# xmcd CD database file
# Copyright (C) 1995-1998 Ti Kan
#
# Track frame offsets:
#	150
#	15927
#	35823
#	54629
#	76679
#	89143
#	108231
#	126673
#	138619
#	155302
#	180815
#	201436
#	218472
#	236391
#	256522
#	269129
#	290107
#	309439
#
# Disc length: 4427 seconds
#
# Revision: 1
# Processed by: cddbd v1.4b41PL1 Copyright (c) Steve Scherf et al.
# Submitted via: CDex 1.30
#
DISCID=fc114912
DTITLE=Jack D. Myrick - Old Country's Greatest Hits  Volumn #1
DYEAR=2000
DGENRE=Country
TTITLE0=Tonight The Bottle Let Me Down
TTITLE1="TB" Blues
TTITLE2=Long Gone Lonesome Blues
TTITLE3=TheYear Clayton Delaney Died
TTITLE4=Will The Circle Be Unbroken
TTITLE5=Music Makin' Mama From Memphis Tennesee
TTITLE6=Beggin To You
TTITLE7=Millers Cave
TTITLE8=Back Street Affair
TTITLE9=You're Gonna Change Or I'm Agonna' Leave
TTITLE10=Pretty Words
TTITLE11=Golden Rocket
TTITLE12=Now And Then
TTITLE13=Frankie And Johnnie
TTITLE14=Jack's Boogie
TTITLE15=Hey Joe
TTITLE16=Ruby, Don't Take Your Love To Town
TTITLE17=Lonesome 77-203
EXTD=\nYEAR: 2000  ID3G:   2
EXTT0=
EXTT1=
EXTT2=
EXTT3=
EXTT4=
EXTT5=
EXTT6=
EXTT7=
EXTT8=
EXTT9=
EXTT10=
EXTT11=
EXTT12=
EXTT13=
EXTT14=
EXTT15=
EXTT16=
EXTT17=
PLAYORDER=
